<svg xmlns="http://www.w3.org/2000/svg" viewBox="0 0 1200 1640" role="img" aria-label="CausalVis architecture: video and masks are lifted to 3D object tracks; a language model reads the question and names the removed object; the counterfactual world builder replays the scene using the real video until the removal can reach an object and the world model after that; a collision check writes events to a store; the language model answers from the store."><rect width="1200" height="1640" fill="#F3F5F4"/><style>text{font-family:Archivo,'Arial Narrow',Arial,sans-serif}.mono{font-family:'IBM Plex Mono',Consolas,monospace}.s-ink{fill:#1B2127}.s-ink2{fill:#56616B}.k-line{stroke:#D2D8D6}.f-panel{fill:#FFFFFF}.f-tint{fill:#E7ECEA}.f-rec{fill:#8A5A2C}.f-sim{fill:#0E7C89}.f-lm{fill:#6A4B9E}.f-hand{fill:#66707A}.f-bad{fill:#B0442E}.f-recbg{fill:#F3EAE0}.f-simbg{fill:#E1F1F2}.f-lmbg{fill:#ECE6F5}.f-handbg{fill:#E9ECEE}.k-ink{stroke:#1B2127}.k-ink2{stroke:#56616B}.k-rec{stroke:#8A5A2C}.k-sim{stroke:#0E7C89}.k-lm{stroke:#6A4B9E}.k-hand{stroke:#66707A}.k-bad{stroke:#B0442E}</style>
<defs>
  <marker id="ah" viewBox="0 0 10 10" refX="9" refY="5" markerWidth="7" markerHeight="7" orient="auto-start-reverse"><path d="M0,0 L10,5 L0,10 z" class="s-ink2"/></marker>
  <marker id="ahs" viewBox="0 0 10 10" refX="9" refY="5" markerWidth="7" markerHeight="7" orient="auto-start-reverse"><path d="M0,0 L10,5 L0,10 z" class="f-sim"/></marker>
  <marker id="ahl" viewBox="0 0 10 10" refX="9" refY="5" markerWidth="7" markerHeight="7" orient="auto-start-reverse"><path d="M0,0 L10,5 L0,10 z" class="f-lm"/></marker>
  <pattern id="hatch" width="7" height="7" patternUnits="userSpaceOnUse" patternTransform="rotate(45)"><rect width="7" height="7" class="f-simbg"/><line x1="0" y1="0" x2="0" y2="7" class="k-sim" stroke-width="2.4"/></pattern>
</defs>

<!-- ================= FLOW STRIP ================= -->
<text x="25" y="22" font-size="13" font-weight="700" letter-spacing="1.5" class="s-ink2">FLOW · ONE QUESTION FROM VIDEO TO ANSWER</text>
<!-- upper row -->
<rect x="171" y="40" width="128" height="52" class="f-panel k-ink2" stroke-width="1.2"/>
<text x="235" y="62" font-size="13.5" font-weight="700" text-anchor="middle" class="s-ink">Question</text>
<text x="235" y="80" font-size="11.5" text-anchor="middle" class="s-ink2">"if the cube is removed…"</text>
<rect x="317" y="40" width="128" height="52" class="f-lmbg k-lm" stroke-width="1.6"/>
<text x="381" y="62" font-size="13.5" font-weight="700" text-anchor="middle" class="s-ink">LM reads it</text>
<text x="381" y="80" font-size="11.5" text-anchor="middle" class="s-ink2">panel (k)</text>
<line x1="299" y1="66" x2="315" y2="66" class="k-ink2" stroke-width="1.4" marker-end="url(#ah)"/>
<rect x="598" y="40" width="150" height="52" class="f-simbg k-sim" stroke-width="1.6"/>
<text x="673" y="62" font-size="13.5" font-weight="700" text-anchor="middle" class="s-ink">World model</text>
<text x="673" y="80" font-size="11.5" text-anchor="middle" class="s-ink2">(d)–(g) learned</text>
<path d="M445,70 C500,76 520,90 522,138" fill="none" class="k-lm" stroke-width="1.6" marker-end="url(#ahl)"/>
<text x="470" y="108" font-size="12" class="s-ink" font-weight="700">remove: cube</text>
<path d="M620,92 C590,110 560,118 550,138" fill="none" class="k-sim" stroke-width="1.6" marker-end="url(#ahs)"/>
<text x="600" y="126" font-size="12" class="s-ink" font-weight="700">moves, bounces</text>

<!-- main row: x = 25 + i*146, w=128 -->
<g font-size="13.5" font-weight="700" text-anchor="middle">
  <rect x="25" y="140" width="128" height="62" class="f-recbg k-rec" stroke-width="1.6"/>
  <text x="89" y="166" class="s-ink">Video + masks</text><text x="89" y="186" font-size="11.5" font-weight="500" class="s-ink2">(a) 128 frames</text>
  <rect x="171" y="140" width="128" height="62" class="f-handbg k-hand" stroke-width="1.6"/>
  <text x="235" y="166" class="s-ink">3D lift</text><text x="235" y="186" font-size="11.5" font-weight="500" class="s-ink2">(b) fit shapes</text>
  <rect x="317" y="140" width="128" height="62" class="f-recbg k-rec" stroke-width="1.6"/>
  <text x="381" y="166" class="s-ink">Object tracks</text><text x="381" y="186" font-size="11.5" font-weight="500" class="s-ink2">(c) per frame</text>
  <rect x="463" y="140" width="128" height="62" class="f-simbg k-sim" stroke-width="2.4"/>
  <text x="527" y="163" class="s-ink">Counterfactual</text><text x="527" y="180" class="s-ink">world builder</text><text x="527" y="196" font-size="11.5" font-weight="500" class="s-ink2">(h)</text>
  <rect x="609" y="140" width="128" height="62" class="f-handbg k-hand" stroke-width="1.6"/>
  <text x="673" y="166" class="s-ink">Collision check</text><text x="673" y="186" font-size="11.5" font-weight="500" class="s-ink2">(i) size ×1.2</text>
  <rect x="755" y="140" width="128" height="62" class="f-panel k-ink2" stroke-width="1.6"/>
  <text x="819" y="166" class="s-ink">Store</text><text x="819" y="186" font-size="11.5" font-weight="500" class="s-ink2">(j) every frame</text>
  <rect x="901" y="140" width="128" height="62" class="f-lmbg k-lm" stroke-width="1.6"/>
  <text x="965" y="166" class="s-ink">LM answers</text><text x="965" y="186" font-size="11.5" font-weight="500" class="s-ink2">(k) cites store</text>
  <rect x="1047" y="140" width="128" height="62" class="f-panel k-ink" stroke-width="2"/>
  <text x="1111" y="166" class="s-ink">Answer</text><text x="1111" y="186" font-size="11.5" font-weight="500" class="s-ink2">correct / wrong</text>
</g>
<g class="k-ink2" stroke-width="1.4">
  <line x1="153" y1="171" x2="169" y2="171" marker-end="url(#ah)"/><line x1="299" y1="171" x2="315" y2="171" marker-end="url(#ah)"/>
  <line x1="445" y1="171" x2="461" y2="171" marker-end="url(#ah)"/><line x1="591" y1="171" x2="607" y2="171" marker-end="url(#ah)"/>
  <line x1="737" y1="171" x2="753" y2="171" marker-end="url(#ah)"/><line x1="883" y1="171" x2="899" y2="171" marker-end="url(#ah)"/>
  <line x1="1029" y1="171" x2="1045" y2="171" marker-end="url(#ah)"/>
</g>
<text x="819" y="232" font-size="12" text-anchor="middle" class="s-ink2">also → 3D orbiting GIF of the predicted world</text>

<!-- ================= PANELS ================= -->
<!-- panel frames: cols x=20,410,800 ; rows y=270,610,950,1290 ; 380x320 -->
<g class="f-panel k-ink2" stroke-width="1">
  <rect x="20" y="270" width="380" height="320"/><rect x="410" y="270" width="380" height="320"/><rect x="800" y="270" width="380" height="320"/>
  <rect x="20" y="610" width="380" height="320"/><rect x="410" y="610" width="380" height="320"/><rect x="800" y="610" width="380" height="320"/>
  <rect x="20" y="950" width="380" height="320"/><rect x="410" y="950" width="380" height="320"/><rect x="800" y="950" width="380" height="320"/>
  <rect x="20" y="1290" width="380" height="320"/><rect x="410" y="1290" width="380" height="320"/><rect x="800" y="1290" width="380" height="320"/>
</g>

<!-- (a) camera & masks -->
<g transform="translate(20,270)">
  <rect x="0" y="0" width="6" height="320" class="f-hand"/>
  <text x="18" y="28" font-size="15.5" font-weight="700" class="s-ink">(a) Finding the real camera</text>
  <text x="18" y="46" font-size="11.5" class="s-ink2">decides: our fitting code</text>
  <rect x="22" y="64" width="160" height="108" class="f-tint k-ink2" stroke-width="1"/>
  <text x="30" y="80" font-size="11" class="s-ink2">video frame</text>
  <circle cx="72" cy="126" r="20" class="f-recbg k-rec" stroke-width="2"/>
  <rect x="112" y="108" width="36" height="36" class="f-recbg k-rec" stroke-width="2"/>
  <circle cx="75" cy="124" r="20" fill="none" class="k-sim" stroke-width="1.6" stroke-dasharray="4 3"/>
  <line x1="190" y1="118" x2="222" y2="118" class="k-ink2" stroke-width="1.4" marker-end="url(#ah)"/>
  <path d="M240,90 L300,72 L300,164 L240,146 Z" class="f-simbg k-sim" stroke-width="1.6"/>
  <rect x="300" y="100" width="40" height="36" class="f-handbg k-hand" stroke-width="1.6"/>
  <text x="290" y="186" font-size="11.5" text-anchor="middle" class="s-ink2">camera position + lens</text>
  <text x="18" y="214" font-size="12.5" class="s-ink">Brown = object outline from the video mask.</text>
  <text x="18" y="232" font-size="12.5" class="s-ink">Dashed = outline our 3D guess would draw.</text>
  <text x="18" y="250" font-size="12.5" class="s-ink">Move the camera until they overlap.</text>
  <text x="18" y="282" font-size="13" font-weight="700" class="s-ink">overlap: 0.57 (published camera)</text>
  <text x="18" y="300" font-size="13" font-weight="700" class="s-ink">→ 0.95 (recovered camera)</text>
</g>

<!-- (b) 3D lift -->
<g transform="translate(410,270)">
  <rect x="0" y="0" width="6" height="320" class="f-hand"/>
  <text x="18" y="28" font-size="15.5" font-weight="700" class="s-ink">(b) Lifting objects into 3D</text>
  <text x="18" y="46" font-size="11.5" class="s-ink2">decides: our fitting code</text>
  <path d="M40,190 L300,190 L350,120 L110,120 Z" class="f-tint k-ink2" stroke-width="1.2"/>
  <rect x="95" y="138" width="40" height="36" class="f-recbg k-rec" stroke-width="2"/>
  <circle cx="200" cy="150" r="20" class="f-recbg k-rec" stroke-width="2"/>
  <ellipse cx="275" cy="140" rx="18" ry="6" class="f-recbg k-rec" stroke-width="2"/>
  <path d="M257,140 L257,172 A18,6 0 0 0 293,172 L293,140" class="f-recbg k-rec" stroke-width="2"/>
  <line x1="200" y1="150" x2="200" y2="176" class="k-ink" stroke-width="1" stroke-dasharray="2 2"/>
  <text x="206" y="98" font-size="11.5" class="s-ink2">x, y on the table</text>
  <path d="M115,128 A22,8 0 0 1 150,126" fill="none" class="k-sim" stroke-width="1.6" marker-end="url(#ahs)"/>
  <text x="70" y="112" font-size="11.5" class="s-ink2">cube turn (yaw)</text>
  <text x="18" y="226" font-size="12.5" class="s-ink">3 known shapes, one size, flat table.</text>
  <text x="18" y="244" font-size="12.5" class="s-ink">So each object is just x, y (+ turn for cubes).</text>
  <text x="18" y="262" font-size="12.5" class="s-ink">Turn is noisy per frame, so a physics rule</text>
  <text x="18" y="280" font-size="12.5" class="s-ink">says: it only changes at collisions.</text>
  <text x="18" y="302" font-size="13" font-weight="700" class="s-ink">turn jitter 4.4° → 0.0°</text>
</g>

<!-- (c) tracks -->
<g transform="translate(800,270)">
  <rect x="0" y="0" width="6" height="320" class="f-rec"/>
  <text x="18" y="28" font-size="15.5" font-weight="700" class="s-ink">(c) Object tracks</text>
  <text x="18" y="46" font-size="11.5" class="s-ink2">decides: the recording</text>
  <g font-size="11.5" class="s-ink">
    <text x="18" y="82">blue metal sphere</text><text x="18" y="108">blue rubber sphere</text><text x="18" y="134">yellow cube</text><text x="18" y="160">red cylinder</text>
  </g>
  <g class="f-rec">
    <rect x="140" y="72" width="220" height="12"/><rect x="140" y="98" width="220" height="12"/>
    <rect x="228" y="124" width="132" height="12"/><rect x="140" y="150" width="150" height="12"/>
  </g>
  <line x1="140" y1="176" x2="360" y2="176" class="k-ink2" stroke-width="1"/>
  <g font-size="10.5" class="s-ink2" text-anchor="middle"><text x="140" y="190">0</text><text x="250" y="190">64</text><text x="360" y="190">127</text></g>
  <text x="228" y="206" font-size="11" class="s-ink2">enters at frame 51</text>
  <text x="18" y="236" font-size="12.5" class="s-ink">Each object: position, speed, on-table?</text>
  <text x="18" y="254" font-size="12.5" class="s-ink">Identity = colour + material + shape.</text>
  <text x="18" y="272" font-size="12.5" class="s-ink">21% of videos have two look-alikes that</text>
  <text x="18" y="290" font-size="12.5" class="s-ink">differ only by material: never mix them.</text>
</g>

<!-- (d) energy -->
<g transform="translate(20,610)">
  <rect x="0" y="0" width="6" height="320" class="f-sim"/>
  <text x="18" y="28" font-size="15.5" font-weight="700" class="s-ink">(d) World model: one learned energy</text>
  <text x="18" y="46" font-size="11.5" class="s-ink2">decides: the world model</text>
  <circle cx="60" cy="120" r="26" class="f-recbg k-rec" stroke-width="2"/>
  <circle cx="150" cy="120" r="26" class="f-recbg k-rec" stroke-width="2"/>
  <line x1="86" y1="86" x2="124" y2="86" class="k-ink" stroke-width="1.2" marker-start="url(#ah)" marker-end="url(#ah)"/>
  <text x="105" y="78" font-size="11.5" text-anchor="middle" class="s-ink">gap</text>
  <line x1="44" y1="160" x2="14" y2="160" class="k-sim" stroke-width="2.4" marker-end="url(#ahs)"/>
  <line x1="166" y1="160" x2="196" y2="160" class="k-sim" stroke-width="2.4" marker-end="url(#ahs)"/>
  <text x="30" y="180" font-size="11.5" class="s-ink">−F</text><text x="176" y="180" font-size="11.5" class="s-ink">+F</text>
  <line x1="230" y1="70" x2="230" y2="180" class="k-ink2" stroke-width="1"/>
  <line x1="230" y1="180" x2="360" y2="180" class="k-ink2" stroke-width="1"/>
  <path d="M236,72 C250,150 270,172 356,176" fill="none" class="k-sim" stroke-width="2.4"/>
  <text x="238" y="66" font-size="11" class="s-ink2">energy V</text><text x="330" y="196" font-size="11" class="s-ink2">gap</text>
  <line x1="246" y1="112" x2="284" y2="152" class="k-ink" stroke-width="1" stroke-dasharray="3 2"/>
  <text x="286" y="132" font-size="11" class="s-ink">slope = force</text>
  <text x="18" y="226" font-size="12.5" class="s-ink">The model learns only V(gap), shared by</text>
  <text x="18" y="244" font-size="12.5" class="s-ink">both objects. Force = −slope, by calculus.</text>
  <text x="18" y="262" font-size="12.5" class="s-ink">So A's push is always exactly −B's push:</text>
  <text x="18" y="280" font-size="12.5" class="s-ink">momentum is conserved by the arithmetic,</text>
  <text x="18" y="298" font-size="12.5" class="s-ink">not by luck (drift 1.6×10⁻⁷ over 500 steps).</text>
</g>

<!-- (e) stepping + friction -->
<g transform="translate(410,610)">
  <rect x="0" y="0" width="6" height="320" class="f-sim"/>
  <text x="18" y="28" font-size="15.5" font-weight="700" class="s-ink">(e) Moving one frame, with friction</text>
  <text x="18" y="46" font-size="11.5" class="s-ink2">decides: the world model</text>
  <g font-size="11.5" text-anchor="middle">
    <rect x="22" y="72" width="62" height="40" class="f-handbg k-hand"/><text x="53" y="90" class="s-ink">½ friction</text><text x="53" y="104" class="s-ink2">slow</text>
    <rect x="94" y="72" width="54" height="40" class="f-simbg k-sim"/><text x="121" y="90" class="s-ink">½ kick</text><text x="121" y="104" class="s-ink2">force</text>
    <rect x="158" y="72" width="54" height="40" class="f-simbg k-sim"/><text x="185" y="90" class="s-ink">drift</text><text x="185" y="104" class="s-ink2">move</text>
    <rect x="222" y="72" width="54" height="40" class="f-simbg k-sim"/><text x="249" y="90" class="s-ink">½ kick</text><text x="249" y="104" class="s-ink2">force</text>
    <rect x="286" y="72" width="62" height="40" class="f-handbg k-hand"/><text x="317" y="90" class="s-ink">½ friction</text><text x="317" y="104" class="s-ink2">slow</text>
  </g>
  <line x1="22" y1="126" x2="348" y2="126" class="k-ink2" stroke-width="1.2" marker-end="url(#ah)"/>
  <text x="185" y="142" font-size="11" text-anchor="middle" class="s-ink2">frame t → frame t+1</text>
  <rect x="22" y="156" width="326" height="42" class="f-tint"/>
  <text x="34" y="174" font-size="11.5" class="s-ink">friction learned per material, per frame:</text>
  <text x="34" y="190" font-size="11.5" class="s-ink">sphere 1.3–1.6% · cube 1.6–2.0% · cylinder 1.9–2.3%</text>
  <text x="18" y="226" font-size="12.5" class="s-ink">This "leapfrog" order stays stable over long</text>
  <text x="18" y="244" font-size="12.5" class="s-ink">runs. Momentum lost to friction is written</text>
  <text x="18" y="262" font-size="12.5" class="s-ink">down as "given to the table", so it can be</text>
  <text x="18" y="280" font-size="12.5" class="s-ink">checked. Spheres roll, so they slow least:</text>
  <text x="18" y="298" font-size="12.5" class="s-ink">the model found that without being told.</text>
</g>

<!-- (f) voxel contact -->
<g transform="translate(800,610)">
  <rect x="0" y="0" width="6" height="320" class="f-sim"/>
  <text x="18" y="28" font-size="15.5" font-weight="700" class="s-ink">(f) Voxel contact and the bounce</text>
  <text x="18" y="46" font-size="11.5" class="s-ink2">decides: the world model's contact step</text>
  <g class="k-line" stroke-width="1" fill="none">
    <path d="M22,62 H202 M22,76 H202 M22,90 H202 M22,104 H202 M22,118 H202 M22,132 H202 M22,146 H202 M22,160 H202 M22,174 H202 M22,188 H202"/>
    <path d="M22,62 V188 M36,62 V188 M50,62 V188 M64,62 V188 M78,62 V188 M92,62 V188 M106,62 V188 M120,62 V188 M134,62 V188 M148,62 V188 M162,62 V188 M176,62 V188 M190,62 V188 M202,62 V188"/>
  </g>
  <g class="f-recbg k-rec" stroke-width="1">
    <rect x="36" y="90" width="14" height="14"/><rect x="50" y="76" width="14" height="14"/><rect x="64" y="76" width="14" height="14"/><rect x="78" y="90" width="14" height="14"/>
    <rect x="36" y="104" width="14" height="14"/><rect x="92" y="104" width="14" height="14"/><rect x="78" y="118" width="14" height="14"/><rect x="36" y="118" width="14" height="14"/>
    <rect x="50" y="132" width="14" height="14"/><rect x="64" y="132" width="14" height="14"/>
  </g>
  <g class="f-handbg k-hand" stroke-width="1">
    <rect x="106" y="90" width="14" height="14"/><rect x="106" y="104" width="14" height="14"/><rect x="106" y="118" width="14" height="14"/><rect x="106" y="132" width="14" height="14"/>
    <rect x="120" y="90" width="14" height="14"/><rect x="134" y="90" width="14" height="14"/><rect x="148" y="90" width="14" height="14"/><rect x="148" y="104" width="14" height="14"/><rect x="148" y="118" width="14" height="14"/><rect x="148" y="132" width="14" height="14"/><rect x="120" y="132" width="14" height="14"/><rect x="134" y="132" width="14" height="14"/>
  </g>
  <circle cx="106" cy="111" r="5" class="f-sim"/>
  <line x1="106" y1="111" x2="62" y2="111" class="k-sim" stroke-width="2.4" marker-end="url(#ahs)"/>
  <text x="60" y="176" font-size="11" class="s-ink2">contact point + normal n</text>
  <line x1="230" y1="130" x2="320" y2="84" class="k-ink" stroke-width="2" marker-end="url(#ah)"/>
  <line x1="230" y1="130" x2="320" y2="130" class="k-sim" stroke-width="2" stroke-dasharray="5 3" marker-end="url(#ahs)"/>
  <line x1="320" y1="130" x2="320" y2="84" class="k-rec" stroke-width="2" stroke-dasharray="5 3" marker-end="url(#ah)"/>
  <text x="264" y="98" font-size="11.5" class="s-ink">speed v</text>
  <text x="236" y="148" font-size="11" class="s-ink">along n: swapped</text>
  <text x="326" y="112" font-size="11" class="s-ink">across:</text><text x="326" y="126" font-size="11" class="s-ink">kept</text>
  <text x="18" y="214" font-size="12" class="mono s-ink">J = −(1+e)(v·n) / (1/m₁ + 1/m₂)</text>
  <text x="18" y="240" font-size="12.5" class="s-ink">Every box an object fills is a "sensor". Where</text>
  <text x="18" y="258" font-size="12.5" class="s-ink">two objects' boxes meet is the contact point.</text>
  <text x="18" y="276" font-size="12.5" class="s-ink">The normal comes from the shape of that patch.</text>
  <text x="18" y="300" font-size="13" font-weight="700" class="s-ink">normal error: median 0.9°, worst 7.5°</text>
</g>

<!-- (g) training -->
<g transform="translate(20,950)">
  <rect x="0" y="0" width="6" height="320" class="f-sim"/>
  <text x="18" y="28" font-size="15.5" font-weight="700" class="s-ink">(g) How the world model learned</text>
  <text x="18" y="46" font-size="11.5" class="s-ink2">learns from: motion only, never answers</text>
  <circle cx="40" cy="150" r="6" class="f-rec"/>
  <path d="M40,150 C110,140 190,110 330,84" fill="none" class="k-rec" stroke-width="2.4" stroke-dasharray="6 4"/>
  <path d="M40,150 C110,146 200,130 330,122" fill="none" class="k-sim" stroke-width="2.4"/>
  <line x1="336" y1="88" x2="336" y2="118" class="k-bad" stroke-width="2" marker-start="url(#ah)" marker-end="url(#ah)"/>
  <text x="300" y="72" font-size="11.5" class="s-ink">real path</text><text x="252" y="144" font-size="11.5" class="s-ink">predicted path</text>
  <text x="344" y="108" font-size="11.5" class="s-ink">error</text>
  <text x="34" y="176" font-size="11" class="s-ink2">start: real state</text><text x="300" y="176" font-size="11" class="s-ink2">20 frames later</text>
  <text x="18" y="214" font-size="12.5" class="s-ink">Start from a real moment, let the model run</text>
  <text x="18" y="232" font-size="12.5" class="s-ink">20 frames by itself, measure how far off it is,</text>
  <text x="18" y="250" font-size="12.5" class="s-ink">adjust, repeat. Voxel bounces run inside every</text>
  <text x="18" y="268" font-size="12.5" class="s-ink">step: the direction is fixed geometry, the</text>
  <text x="18" y="286" font-size="12.5" class="s-ink">strength can learn. 11,182 videos, laptop CPU.</text>
</g>

<!-- (h) counterfactual world builder -->
<g transform="translate(410,950)">
  <rect x="0" y="0" width="6" height="320" class="f-sim"/>
  <text x="18" y="28" font-size="15.5" font-weight="700" class="s-ink">(h) Building the "what if" world</text>
  <text x="18" y="46" font-size="11.5" class="s-ink2">decides: our rule + world model positions</text>
  <!-- axis: frame 0 at x=110, 127 at x=300, 157 at x=345 ; 1.5 px per frame -->
  <rect x="300" y="60" width="45" height="130" fill="url(#hatch)"/>
  <text x="322" y="202" font-size="10.5" text-anchor="middle" class="s-ink2">+30</text>
  <g font-size="11.5" class="s-ink"><text x="18" y="80">cube</text><text x="18" y="108">sphere</text><text x="18" y="136">cylinder</text><text x="18" y="164">rubber cube</text></g>
  <rect x="110" y="70" width="190" height="12" class="f-handbg"/>
  <line x1="110" y1="76" x2="300" y2="76" class="k-bad" stroke-width="2"/>
  <text x="200" y="66" font-size="10.5" text-anchor="middle" class="s-ink2">removed</text>
  <rect x="110" y="98" width="57" height="12" class="f-rec"/><rect x="167" y="98" width="178" height="12" class="f-sim"/>
  <path d="M185,94 v20" class="k-bad" stroke-width="1.6" stroke-dasharray="3 2"/>
  <rect x="128" y="126" width="87" height="12" class="f-rec"/><rect x="215" y="126" width="130" height="12" class="f-sim"/>
  <rect x="186" y="154" width="114" height="12" class="f-rec"/><rect x="300" y="154" width="45" height="12" class="f-sim"/>
  <line x1="110" y1="180" x2="345" y2="180" class="k-ink2" stroke-width="1"/>
  <g font-size="10.5" class="s-ink2" text-anchor="middle"><text x="110" y="194">0</text><text x="205" y="194">64</text><text x="300" y="194">127</text></g>
  <text x="18" y="226" font-size="12" class="s-ink"><tspan class="s-ink" font-weight="700">sphere:</tspan> would touch the cube at 50 → simulate</text>
  <text x="18" y="242" font-size="12" class="s-ink">from 38 (12 frames earlier).</text>
  <text x="18" y="260" font-size="12" class="s-ink"><tspan font-weight="700">cylinder:</tspan> was hit by the now-changed sphere.</text>
  <text x="18" y="278" font-size="12" class="s-ink"><tspan font-weight="700">rubber cube:</tspan> enters at 51, real until the</text>
  <text x="18" y="294" font-size="12" class="s-ink">video ends, then 30 predicted frames.</text>
</g>

<!-- (i) collision check -->
<g transform="translate(800,950)">
  <rect x="0" y="0" width="6" height="320" class="f-hand"/>
  <text x="18" y="28" font-size="15.5" font-weight="700" class="s-ink">(i) Did two objects collide?</text>
  <text x="18" y="46" font-size="11.5" class="s-ink2">decides: rule we wrote, tuned on validation</text>
  <line x1="40" y1="62" x2="40" y2="182" class="k-ink2" stroke-width="1"/>
  <line x1="40" y1="182" x2="355" y2="182" class="k-ink2" stroke-width="1"/>
  <rect x="40" y="144" width="315" height="22" class="f-handbg"/>
  <line x1="40" y1="144" x2="355" y2="144" class="k-hand" stroke-width="1.6" stroke-dasharray="5 3"/>
  <path d="M42,70 C90,80 120,140 150,158 C170,168 190,120 230,110 C260,104 270,150 290,152 C310,154 330,100 352,86" fill="none" class="k-sim" stroke-width="2.4"/>
  <circle cx="145" cy="155" r="6" class="f-sim"/>
  <text x="112" y="136" font-size="11" class="s-ink" font-weight="700">counted</text>
  <text x="270" y="172" font-size="11" class="s-ink2">counted again only</text>
  <text x="270" y="198" font-size="11" class="s-ink2">after separating</text>
  <text x="46" y="76" font-size="11" class="s-ink2">gap between surfaces</text>
  <text x="46" y="198" font-size="11" class="s-ink2">frames →</text>
  <text x="18" y="232" font-size="12.5" class="s-ink">Collision = surfaces within 0.03, objects moving</text>
  <text x="18" y="250" font-size="12.5" class="s-ink">closer, using sizes ×1.2 (our 3D objects came out</text>
  <text x="18" y="268" font-size="12.5" class="s-ink">~20% small). The voxel sensor reading is saved</text>
  <text x="18" y="286" font-size="12.5" class="s-ink">too, but scored lower (82.8% vs 88.1%) because</text>
  <text x="18" y="304" font-size="12.5" class="s-ink">it inherits the too-small objects.</text>
</g>

<!-- (j) store -->
<g transform="translate(20,1290)">
  <rect x="0" y="0" width="6" height="320" class="f-hand"/>
  <text x="18" y="28" font-size="15.5" font-weight="700" class="s-ink">(j) The stored future</text>
  <text x="18" y="46" font-size="11.5" class="s-ink2">written by: our code, from the world above</text>
  <rect x="44" y="92" width="300" height="104" class="f-tint k-ink2" stroke-width="1"/>
  <rect x="32" y="80" width="300" height="104" class="f-tint k-ink2" stroke-width="1"/>
  <rect x="20" y="66" width="300" height="104" class="f-panel k-ink" stroke-width="1.4"/>
  <g font-size="11" class="mono s-ink">
    <text x="30" y="86">sphere: real until 38, simulated after</text>
    <text x="30" y="104">frame 65: gray sphere + cyan cube</text>
    <text x="30" y="122">frame 70: gray sphere + blue cylinder</text>
    <text x="30" y="140">frame 141: (after the video ends)</text>
    <text x="30" y="158">any pair not listed: no collision</text>
  </g>
  <text x="18" y="224" font-size="12.5" class="s-ink">Three copies of one world: a summary (.json),</text>
  <text x="18" y="242" font-size="12.5" class="s-ink">every position of every frame (.npz, used for</text>
  <text x="18" y="260" font-size="12.5" class="s-ink">the 3D GIF), and a plain-text version the</text>
  <text x="18" y="278" font-size="12.5" class="s-ink">language model reads. All options of one</text>
  <text x="18" y="296" font-size="12.5" class="s-ink">question are read from this same world.</text>
</g>

<!-- (k) language model -->
<g transform="translate(410,1290)">
  <rect x="0" y="0" width="6" height="320" class="f-lm"/>
  <text x="18" y="28" font-size="15.5" font-weight="700" class="s-ink">(k) The language model's two jobs</text>
  <text x="18" y="46" font-size="11.5" class="s-ink2">decides: the language model (Groq, free)</text>
  <rect x="20" y="62" width="200" height="40" class="f-tint"/>
  <text x="30" y="80" font-size="11.5" class="s-ink">"If the metal cube is removed,</text><text x="30" y="95" font-size="11.5" class="s-ink">which event will happen?"</text>
  <line x1="222" y1="82" x2="250" y2="82" class="k-lm" stroke-width="1.6" marker-end="url(#ahl)"/>
  <rect x="254" y="62" width="104" height="40" class="f-lmbg k-lm" stroke-width="1.4"/>
  <text x="306" y="80" font-size="11.5" text-anchor="middle" class="s-ink" font-weight="700">remove:</text><text x="306" y="95" font-size="11.5" text-anchor="middle" class="s-ink">green metal cube</text>
  <rect x="20" y="118" width="200" height="40" class="f-tint"/>
  <text x="30" y="136" font-size="11.5" class="mono s-ink">stored world (j)</text><text x="30" y="151" font-size="11.5" class="s-ink">+ "sphere collides with cube?"</text>
  <line x1="222" y1="138" x2="250" y2="138" class="k-lm" stroke-width="1.6" marker-end="url(#ahl)"/>
  <rect x="254" y="118" width="104" height="40" class="f-lmbg k-lm" stroke-width="1.4"/>
  <text x="306" y="136" font-size="11.5" text-anchor="middle" class="s-ink" font-weight="700">correct</text><text x="306" y="151" font-size="11" text-anchor="middle" class="s-ink">cites "frame 65"</text>
  <text x="18" y="190" font-size="12.5" class="s-ink" font-weight="700">Two-step rule for every option:</text>
  <text x="18" y="208" font-size="12.5" class="s-ink">1. Does this collision happen in the store?</text>
  <text x="18" y="226" font-size="12.5" class="s-ink">2. If the question says "will NOT happen", flip it.</text>
  <text x="18" y="254" font-size="12.5" class="s-ink">It does not choose when to simulate: the</text>
  <text x="18" y="272" font-size="12.5" class="s-ink">question has no timing in it. On 60 test</text>
  <text x="18" y="290" font-size="12.5" class="s-ink">questions: 86.2%, same as a plain lookup.</text>
</g>

<!-- (l) evaluation -->
<g transform="translate(800,1290)">
  <rect x="0" y="0" width="6" height="320" class="f-hand"/>
  <text x="18" y="28" font-size="15.5" font-weight="700" class="s-ink">(l) Keeping the score honest</text>
  <text x="18" y="46" font-size="11.5" class="s-ink2">decides: the method, not the model</text>
  <!-- 300px = 11,182 clips -->
  <rect x="20" y="64" width="300" height="22" class="f-simbg k-sim"/><text x="28" y="80" font-size="11.5" class="s-ink">train 11,182 videos: learn physics</text>
  <rect x="20" y="96" width="37.5" height="22" class="f-lmbg k-lm"/><text x="66" y="112" font-size="11.5" class="s-ink">validation 1,398: choose settings</text>
  <rect x="20" y="128" width="37.5" height="22" class="f-recbg k-rec"/><text x="66" y="144" font-size="11.5" class="s-ink">test 1,398: score once, 930 questions</text>
  <text x="18" y="176" font-size="11.5" class="s-ink2">options correct on test (bar = 0 to 100%)</text>
  <rect x="120" y="186" width="240" height="14" class="f-tint"/><rect x="120" y="186" width="179.5" height="14" class="f-hand"/>
  <text x="18" y="198" font-size="11.5" class="s-ink">v6 74.8%</text>
  <rect x="120" y="208" width="240" height="14" class="f-tint"/><rect x="120" y="208" width="194.9" height="14" class="f-rec"/>
  <text x="18" y="220" font-size="11.5" class="s-ink">no-sim 81.2%</text>
  <rect x="120" y="230" width="240" height="14" class="f-tint"/><rect x="120" y="230" width="211.4" height="14" class="f-sim"/>
  <text x="18" y="242" font-size="11.5" class="s-ink">v7 88.1%</text>
  <text x="18" y="274" font-size="12.5" class="s-ink">"no-sim" deletes the object and trusts the video.</text>
  <text x="18" y="292" font-size="12.5" class="s-ink">The gap to 88.1% is what simulating adds.</text>
</g>
</svg>